<?xml version="1.0" encoding="UTF-8" standalone="no"?>
<!-- Created with Inkscape (http://www.inkscape.org/) -->

<svg
   xmlns:dc="http://purl.org/dc/elements/1.1/"
   xmlns:cc="http://creativecommons.org/ns#"
   xmlns:rdf="http://www.w3.org/1999/02/22-rdf-syntax-ns#"
   xmlns:svg="http://www.w3.org/2000/svg"
   xmlns="http://www.w3.org/2000/svg"
   xmlns:sodipodi="http://sodipodi.sourceforge.net/DTD/sodipodi-0.dtd"
   xmlns:inkscape="http://www.inkscape.org/namespaces/inkscape"
   width="204.46277mm"
   height="173.1436mm"
   viewBox="0 0 204.46277 173.1436"
   version="1.1"
   id="svg106798"
   inkscape:version="0.92.4 (5da689c313, 2019-01-14)">
  <defs
     id="defs106792">
    <clipPath
       clipPathUnits="userSpaceOnUse"
       id="clipPath20">
      <path
         d="M 0,500 H 500 V 0 H 0 Z"
         id="path18"
         inkscape:connector-curvature="0" />
    </clipPath>
  </defs>
  <sodipodi:namedview
     id="base"
     pagecolor="#ffffff"
     bordercolor="#666666"
     borderopacity="1.0"
     inkscape:pageopacity="0.0"
     inkscape:pageshadow="2"
     inkscape:zoom="0.35"
     inkscape:cx="390.67203"
     inkscape:cy="309.27774"
     inkscape:document-units="mm"
     inkscape:current-layer="layer1"
     showgrid="false"
     fit-margin-top="0"
     fit-margin-left="0"
     fit-margin-right="0"
     fit-margin-bottom="0"
     inkscape:window-width="1920"
     inkscape:window-height="1163"
     inkscape:window-x="1920"
     inkscape:window-y="0"
     inkscape:window-maximized="1" />
  <metadata
     id="metadata106795">
    <rdf:RDF>
      <cc:Work
         rdf:about="">
        <dc:format>image/svg+xml</dc:format>
        <dc:type
           rdf:resource="http://purl.org/dc/dcmitype/StillImage" />
        <dc:title></dc:title>
      </cc:Work>
    </rdf:RDF>
  </metadata>
  <g
     inkscape:label="Layer 1"
     inkscape:groupmode="layer"
     id="layer1"
     transform="translate(-2.4680245,-57.519474)">
    <g
       id="g14"
       transform="matrix(1.8538011,0,0,-1.8538011,-163.89768,743.47649)">
      <g
         id="g16"
         clip-path="url(#clipPath20)">
        <g
           id="g22"
           transform="translate(166.8154,338.501)">
          <path
             d="m 0,0 c 0,0 -10.73,-0.341 -10.362,-11.558 0,0 10.588,0.7 10.362,11.558"
             style="fill:#759b2e;fill-opacity:1;fill-rule:nonzero;stroke:none"
             id="path24"
             inkscape:connector-curvature="0" />
        </g>
        <g
           id="g26"
           transform="translate(174.481,323.2075)">
          <path
             d="m 0,0 c 0,0 -8.228,3.326 -11.696,-5.279 0,0 8.24,-3.007 11.696,5.279"
             style="fill:#759b2e;fill-opacity:1;fill-rule:nonzero;stroke:none"
             id="path28"
             inkscape:connector-curvature="0" />
        </g>
        <g
           id="g30"
           transform="translate(102.5879,320.9468)">
          <path
             d="m 0,0 c 0,0 -7.854,4.132 -12.165,-4.083 0,0 7.898,-3.816 12.165,4.083"
             style="fill:#759b2e;fill-opacity:1;fill-rule:nonzero;stroke:none"
             id="path32"
             inkscape:connector-curvature="0" />
        </g>
        <g
           id="g34"
           transform="translate(113.2651,356.5142)">
          <path
             d="m 0,0 c 0,0 -7.02,-5.429 -1.337,-12.762 0,0 6.751,5.6 1.337,12.762"
             style="fill:#759b2e;fill-opacity:1;fill-rule:nonzero;stroke:none"
             id="path36"
             inkscape:connector-curvature="0" />
        </g>
        <g
           id="g38"
           transform="translate(132.8521,307.4199)">
          <path
             d="m 0,0 c 0,0 -7.321,5.016 -12.557,-2.643 0,0 7.402,-4.707 12.557,2.643"
             style="fill:#759b2e;fill-opacity:1;fill-rule:nonzero;stroke:none"
             id="path40"
             inkscape:connector-curvature="0" />
        </g>
        <g
           id="g42"
           transform="translate(183.353,354.9941)">
          <path
             d="m 0,0 c 0,0 -8.694,-6.298 -2.101,-15.38 0,0 8.375,6.515 2.101,15.38"
             style="fill:#759b2e;fill-opacity:1;fill-rule:nonzero;stroke:none"
             id="path44"
             inkscape:connector-curvature="0" />
        </g>
        <g
           id="g46"
           transform="translate(165.2427,344.9663)">
          <path
             d="m 0,0 c 0,0 -8.828,6.108 -15.205,-3.128 0,0 8.928,-5.735 15.205,3.128"
             style="fill:#759b2e;fill-opacity:1;fill-rule:nonzero;stroke:none"
             id="path48"
             inkscape:connector-curvature="0" />
        </g>
        <g
           id="g50"
           transform="translate(166.8291,364.5127)">
          <path
             d="m 0,0 c 0,0 -9.983,-3.947 -5.847,-14.38 0,0 9.729,4.237 5.847,14.38"
             style="fill:#759b2e;fill-opacity:1;fill-rule:nonzero;stroke:none"
             id="path52"
             inkscape:connector-curvature="0" />
        </g>
        <g
           id="g54"
           transform="translate(150.9756,335.4966)">
          <path
             d="m 0,0 c 0,0 -9.554,-4.896 -4.426,-14.878 0,0 9.273,5.159 4.426,14.878"
             style="fill:#759b2e;fill-opacity:1;fill-rule:nonzero;stroke:none"
             id="path56"
             inkscape:connector-curvature="0" />
        </g>
        <g
           id="g58"
           transform="translate(150.1421,308.2236)">
          <path
             d="M 0,0 C 0,0 5.162,-9.413 14.997,-4.006 14.997,-4.006 9.579,5.118 0,0"
             style="fill:#759b2e;fill-opacity:1;fill-rule:nonzero;stroke:none"
             id="path60"
             inkscape:connector-curvature="0" />
        </g>
        <g
           id="g62"
           transform="translate(178.8506,311.748)">
          <path
             d="M 0,0 C 0,0 9.858,-4.249 14.291,6.062 14.291,6.062 4.408,9.926 0,0"
             style="fill:#759b2e;fill-opacity:1;fill-rule:nonzero;stroke:none"
             id="path64"
             inkscape:connector-curvature="0" />
        </g>
        <g
           id="g66"
           transform="translate(182.8872,323.6704)">
          <path
             d="M 0,0 C 0,0 10.734,-0.092 10.819,11.131 10.819,11.131 0.212,10.858 0,0"
             style="fill:#759b2e;fill-opacity:1;fill-rule:nonzero;stroke:none"
             id="path68"
             inkscape:connector-curvature="0" />
        </g>
        <g
           id="g70"
           transform="translate(121.3804,324.8955)">
          <path
             d="M 0,0 C 0,0 5.277,-9.349 15.045,-3.823 15.045,-3.823 9.516,5.234 0,0"
             style="fill:#759b2e;fill-opacity:1;fill-rule:nonzero;stroke:none"
             id="path72"
             inkscape:connector-curvature="0" />
        </g>
        <g
           id="g74"
           transform="translate(113.9224,341.0728)">
          <path
             d="M 0,0 C 0,0 0.625,-10.717 11.828,-10.052 11.828,-10.052 10.848,0.513 0,0"
             style="fill:#759b2e;fill-opacity:1;fill-rule:nonzero;stroke:none"
             id="path76"
             inkscape:connector-curvature="0" />
        </g>
        <g
           id="g78"
           transform="translate(97.9619,343.48)">
          <path
             d="m 0,0 c 0,0 -4.175,-9.89 6.169,-14.244 0,0 3.789,9.911 -6.169,14.244"
             style="fill:#759b2e;fill-opacity:1;fill-rule:nonzero;stroke:none"
             id="path80"
             inkscape:connector-curvature="0" />
        </g>
        <g
           id="g82"
           transform="translate(100.9839,313.9697)">
          <path
             d="M 0,0 C 0,0 8.199,-6.93 15.435,1.649 15.435,1.649 7.101,8.217 0,0"
             style="fill:#759b2e;fill-opacity:1;fill-rule:nonzero;stroke:none"
             id="path84"
             inkscape:connector-curvature="0" />
        </g>
        <g
           id="g86"
           transform="translate(130.0806,351.019)">
          <path
             d="m 0,0 c 0,0 -3.295,-10.217 7.389,-13.651 0,0 2.91,10.204 -7.389,13.651"
             style="fill:#759b2e;fill-opacity:1;fill-rule:nonzero;stroke:none"
             id="path88"
             inkscape:connector-curvature="0" />
        </g>
        <g
           id="g90"
           transform="translate(121.2979,362.0029)">
          <path
             d="M 0,0 C 0,0 2.722,-10.384 13.575,-7.528 13.575,-7.528 10.536,2.638 0,0"
             style="fill:#759b2e;fill-opacity:1;fill-rule:nonzero;stroke:none"
             id="path92"
             inkscape:connector-curvature="0" />
        </g>
        <g
           id="g94"
           transform="translate(146.8179,370.0273)">
          <path
             d="M 0,0 C 0,0 -5.668,-9.116 3.868,-15.033 3.868,-15.033 9.16,-5.835 0,0"
             style="fill:#759b2e;fill-opacity:1;fill-rule:nonzero;stroke:none"
             id="path96"
             inkscape:connector-curvature="0" />
        </g>
        <g
           id="g98"
           transform="translate(156.4443,369.4458)">
          <path
             d="m 0,0 c 0,0 4.14,-12.011 -7.78,-22.382 -11.919,-10.372 -8.978,-30.031 -4.334,-36.687 4.644,-6.657 7.215,-22.446 -4.055,-32.973"
             style="fill:none;stroke:#c5ab6e;stroke-width:2.12299991;stroke-linecap:butt;stroke-linejoin:miter;stroke-miterlimit:10;stroke-dasharray:none;stroke-opacity:1"
             id="path100"
             inkscape:connector-curvature="0" />
        </g>
        <g
           id="g102"
           transform="translate(149.3789,277.4043)">
          <path
             d="m 0,0 c -11.27,10.526 -8.699,26.315 -4.055,32.972 0,0 3.186,9.597 20.523,15.48 17.338,5.882 22.277,13.833 24.011,21.09"
             style="fill:none;stroke:#c5ab6e;stroke-width:2.12299991;stroke-linecap:butt;stroke-linejoin:miter;stroke-miterlimit:10;stroke-dasharray:none;stroke-opacity:1"
             id="path104"
             inkscape:connector-curvature="0" />
        </g>
        <g
           id="g106"
           transform="translate(171.6836,363.6348)">
          <path
             d="M 0,0 C 0,0 10.495,-21.737 -3.94,-37.111"
             style="fill:none;stroke:#c5ab6e;stroke-width:2.12299991;stroke-linecap:butt;stroke-linejoin:miter;stroke-miterlimit:10;stroke-dasharray:none;stroke-opacity:1"
             id="path108"
             inkscape:connector-curvature="0" />
        </g>
        <g
           id="g110"
           transform="translate(145.9771,311.7603)">
          <path
             d="m 0,0 c 0,0 10.118,5.409 21.109,0 10.99,-5.409 20.89,-8.286 32.271,1.202"
             style="fill:none;stroke:#c5ab6e;stroke-width:2.12299991;stroke-linecap:butt;stroke-linejoin:miter;stroke-miterlimit:10;stroke-dasharray:none;stroke-opacity:1"
             id="path112"
             inkscape:connector-curvature="0" />
        </g>
        <g
           id="g114"
           transform="translate(163.667,313.1187)">
          <path
             d="M 0,0 C 0,0 11.957,-0.575 15.184,8.868"
             style="fill:none;stroke:#c5ab6e;stroke-width:2.12299991;stroke-linecap:butt;stroke-linejoin:miter;stroke-miterlimit:10;stroke-dasharray:none;stroke-opacity:1"
             id="path116"
             inkscape:connector-curvature="0" />
        </g>
        <g
           id="g118"
           transform="translate(143.8027,311.7603)">
          <path
             d="M 0,0 C 0,0 -10.118,5.409 -21.108,0 -32.099,-5.409 -41.998,-8.286 -53.38,1.202"
             style="fill:none;stroke:#c5ab6e;stroke-width:2.12299991;stroke-linecap:butt;stroke-linejoin:miter;stroke-miterlimit:10;stroke-dasharray:none;stroke-opacity:1"
             id="path120"
             inkscape:connector-curvature="0" />
        </g>
        <g
           id="g122"
           transform="translate(105.771,354.0981)">
          <path
             d="M 0,0 C 0,0 -2.121,-30.673 22.314,-40.462"
             style="fill:none;stroke:#c5ab6e;stroke-width:2.12299991;stroke-linecap:butt;stroke-linejoin:miter;stroke-miterlimit:10;stroke-dasharray:none;stroke-opacity:1"
             id="path124"
             inkscape:connector-curvature="0" />
        </g>
        <g
           id="g126"
           transform="translate(93.1533,333.2803)">
          <path
             d="M 0,0 C 0,0 5.734,-12.064 22.214,-10.674"
             style="fill:none;stroke:#c5ab6e;stroke-width:2.12299991;stroke-linecap:butt;stroke-linejoin:miter;stroke-miterlimit:10;stroke-dasharray:none;stroke-opacity:1"
             id="path128"
             inkscape:connector-curvature="0" />
        </g>
        <g
           id="g130"
           transform="translate(133.7251,362.5342)">
          <path
             d="M 0,0 C 0,0 13.663,-3.148 13.727,-16.611"
             style="fill:none;stroke:#c5ab6e;stroke-width:2.12299991;stroke-linecap:butt;stroke-linejoin:miter;stroke-miterlimit:10;stroke-dasharray:none;stroke-opacity:1"
             id="path132"
             inkscape:connector-curvature="0" />
        </g>
        <g
           id="g134"
           transform="translate(118.937,354.0981)">
          <path
             d="M 0,0 C 0,0 4.256,-18.494 21.651,-22.974"
             style="fill:none;stroke:#c5ab6e;stroke-width:2.12299991;stroke-linecap:butt;stroke-linejoin:miter;stroke-miterlimit:10;stroke-dasharray:none;stroke-opacity:1"
             id="path136"
             inkscape:connector-curvature="0" />
        </g>
      </g>
    </g>
  </g>
</svg>
